# xmcd
#
# Track frame offsets:
# 150
# 13662
# 32421
# 46767
# 55882
# 73527
# 93433
# 106117
# 129422
# 160390
# 173332
# 191333
# 206585
# 232195
# 255183
# 287864
# 314784
# 333815
#
# Disc length: 4685 seconds
#
#
# Revision: 1
# Processed by: cddbd v1.5.1PL0 Copyright (c) Steve Scherf et al.
# Submitted via: FreeRIP 2.80 
#
DISCID=ed124b12
DTITLE=Chicken Shack - The Anthology 1967-2001 - CD1
DYEAR=2004
DGENRE=Blues
TTITLE0=Everyday I Have The Blues (1997)
TTITLE1=Tell Me (1997)
TTITLE2=When The Train Comes Back (1997)
TTITLE3=San Ho Zay (1997)
TTITLE4=Mean Old World (1997)
TTITLE5=You´ve Done LostYour Good Thing Now (1997)
TTITLE6=I´m Tore Down (1997)
TTITLE7=You Take Me Down (2000)
TTITLE8=The Thrill Has Gone (1995)
TTITLE9=My Mood (1997)
TTITLE10=Midnight Hour (1997)
TTITLE11=Set Me Free (1994)
TTITLE12=I´d Rather Go Blind (1994)
TTITLE13=Going Up Going Down (1995)
TTITLE14=Lost The Best Friend I Ever Have (1997)
TTITLE15=Black Night (1997)
TTITLE16=Prisoner (1997)
TTITLE17=He Knows The Rules (1973)
EXTD=
EXTT0=
EXTT1=
EXTT2=
EXTT3=
EXTT4=
EXTT5=
EXTT6=
EXTT7=
EXTT8=
EXTT9=
EXTT10=
EXTT11=
EXTT12=
EXTT13=
EXTT14=
EXTT15=
EXTT16=
EXTT17=
PLAYORDER=
